<?xml version="1.0" standalone="no"?>
<!DOCTYPE svg PUBLIC "-//W3C//DTD SVG 20010904//EN"
 "http://www.w3.org/TR/2001/REC-SVG-20010904/DTD/svg10.dtd">
<svg version="1.0" xmlns="http://www.w3.org/2000/svg"
 width="886.000000pt" height="361.000000pt" viewBox="0 0 886.000000 361.000000"
 preserveAspectRatio="xMidYMid meet">

<g transform="translate(0.000000,361.000000) scale(0.100000,-0.100000)"
fill="#000000" stroke="none">
<path d="M1143 2955 c-19 -19 -46 -48 -58 -66 -13 -17 -38 -47 -57 -68 -18
-20 -51 -59 -73 -86 -22 -28 -44 -55 -50 -61 -5 -6 -26 -31 -46 -55 -64 -77
-129 -154 -164 -193 -5 -6 -28 -34 -50 -61 -44 -56 -67 -82 -108 -129 -28 -32
-44 -72 -33 -83 3 -3 39 -8 81 -11 87 -5 94 -17 47 -74 -15 -18 -36 -44 -47
-57 -53 -65 -150 -177 -158 -182 -5 -4 -9 -21 -10 -40 -2 -30 2 -35 33 -46 19
-6 54 -12 76 -12 53 -1 60 -18 25 -58 -14 -17 -48 -57 -76 -89 -27 -32 -63
-75 -80 -96 -16 -20 -56 -69 -88 -107 -42 -50 -59 -79 -59 -101 -1 -16 2 -34
6 -38 4 -4 154 -9 332 -12 274 -4 326 -7 334 -20 6 -8 10 -132 10 -282 l0
-268 175 0 175 0 0 270 0 270 -34 0 c-19 0 -44 8 -56 18 -32 26 -22 55 46 127
109 117 243 261 300 325 33 35 94 99 136 142 69 69 82 78 114 78 32 0 45 -9
113 -78 42 -42 105 -109 140 -147 35 -39 110 -119 166 -180 175 -188 185 -199
192 -224 9 -35 -27 -61 -83 -61 l-44 0 2 -267 3 -268 164 -3 c112 -2 168 1
177 9 11 9 14 62 14 268 0 190 3 261 13 274 11 14 47 17 324 19 274 3 314 5
329 19 14 14 14 22 4 53 -6 20 -16 36 -21 36 -5 0 -9 5 -9 10 0 6 -10 21 -23
33 -13 12 -41 44 -62 72 -22 27 -44 55 -50 61 -5 6 -28 32 -50 59 -22 26 -55
64 -72 84 -52 58 -48 65 48 76 31 3 65 12 75 20 29 20 17 39 -121 200 -27 32
-61 73 -74 92 -13 18 -28 33 -33 33 -4 0 -8 14 -8 30 0 29 2 30 44 30 24 0 58
3 76 6 29 6 31 10 26 35 -3 15 -14 38 -25 51 -10 13 -38 46 -61 73 -23 28 -52
61 -64 75 -34 40 -85 101 -125 149 -20 25 -52 63 -71 86 -19 23 -50 60 -68 83
-19 22 -44 52 -55 65 -12 12 -33 38 -47 56 -32 41 -61 75 -112 129 -34 35 -47
42 -78 42 -39 0 -72 -29 -165 -145 -40 -50 -71 -88 -90 -109 -5 -6 -32 -38
-59 -71 -27 -33 -54 -64 -61 -70 -6 -5 -32 -37 -57 -70 -83 -106 -114 -137
-135 -133 -11 1 -70 64 -132 138 -132 158 -182 218 -196 234 -5 6 -32 38 -59
71 -100 121 -137 155 -174 155 -24 0 -42 -9 -69 -35z"/>
<path d="M4509 2117 c-46 -21 -58 -42 -65 -110 -6 -55 -10 -67 -30 -76 -31
-14 -30 -29 0 -41 l25 -9 3 -185 c2 -101 6 -188 10 -192 4 -4 14 -1 23 6 12
10 15 47 17 193 l3 181 33 8 c27 7 31 12 22 23 -6 8 -21 15 -33 17 -19 3 -22
10 -25 57 -3 44 1 58 19 77 12 12 31 24 43 26 27 4 28 32 1 35 -11 1 -32 -4
-46 -10z"/>
<path d="M8263 2113 c-10 -4 -13 -72 -13 -293 0 -159 3 -295 6 -304 9 -24 29
-19 42 9 l12 25 44 -25 c53 -29 83 -31 125 -8 52 30 71 85 71 202 0 82 -4 109
-20 141 -33 65 -102 87 -169 54 -54 -27 -60 -17 -63 97 -3 99 -8 113 -35 102z
m214 -260 c27 -35 28 -42 28 -141 0 -75 -4 -107 -12 -110 -7 -2 -13 -8 -13
-14 0 -20 -46 -47 -80 -47 -36 0 -66 19 -87 57 -8 13 -13 61 -13 125 0 98 1
104 28 135 23 27 34 32 74 32 42 0 50 -4 75 -37z"/>
<path d="M3665 2082 c-103 -36 -129 -180 -45 -249 15 -13 62 -37 135 -69 43
-19 52 -26 78 -66 30 -47 17 -94 -38 -140 -49 -42 -169 -1 -181 62 -6 29 -28
45 -45 34 -15 -9 0 -64 25 -91 56 -60 146 -79 216 -43 56 28 80 67 80 129 0
54 -17 92 -54 124 -25 20 -103 57 -122 57 -8 0 -14 5 -14 10 0 6 -6 10 -14 10
-8 0 -26 14 -40 31 -50 59 -24 143 51 168 54 18 103 -4 135 -61 26 -46 45 -58
54 -33 9 22 -25 82 -59 107 -30 21 -125 33 -162 20z"/>
<path d="M5072 1793 c3 -248 5 -288 18 -288 12 0 15 22 18 129 1 75 7 135 14
143 7 9 40 13 112 13 157 0 146 10 146 -135 0 -130 4 -155 25 -155 7 0 16 7
19 16 3 9 6 139 6 290 l0 274 -25 0 -24 0 -3 -122 -3 -123 -120 -3 c-104 -2
-121 0 -132 15 -9 11 -13 54 -13 125 0 102 -1 108 -20 108 -20 0 -20 -5 -18
-287z"/>
<path d="M7340 1795 c0 -248 2 -286 15 -292 9 -3 19 -2 23 2 4 3 9 66 10 138
3 86 8 134 15 139 17 11 219 9 237 -2 12 -7 16 -39 20 -142 4 -109 8 -133 20
-133 13 0 15 40 18 288 2 282 2 287 -18 287 -19 0 -20 -6 -20 -99 0 -55 -4
-111 -10 -126 l-10 -26 -122 3 -123 3 -5 120 c-5 115 -6 120 -27 123 l-23 3 0
-286z"/>
<path d="M4065 1911 c-16 -10 -36 -28 -42 -42 -11 -21 -10 -24 7 -27 12 -2 29
8 44 25 19 22 32 28 63 27 56 -2 83 -28 83 -80 0 -23 -6 -46 -12 -52 -7 -5
-42 -13 -78 -16 -94 -10 -130 -48 -130 -133 1 -51 10 -68 50 -96 33 -23 71
-21 114 4 33 19 36 19 60 4 14 -9 30 -14 36 -10 11 7 12 223 2 315 -6 47 -11
57 -41 77 -41 28 -112 30 -156 4z m153 -258 c3 -61 3 -62 -35 -87 -49 -34 -85
-33 -118 1 -36 39 -33 83 6 123 29 28 36 31 88 28 l56 -3 3 -62z"/>
<path d="M4740 1919 c-32 -13 -70 -57 -70 -80 0 -10 -4 -21 -10 -24 -5 -3 -10
-46 -10 -94 0 -87 12 -136 43 -171 22 -27 78 -50 117 -50 51 0 119 36 120 63
0 12 -34 7 -54 -8 -11 -8 -40 -15 -64 -15 -53 0 -94 35 -113 98 -11 37 -10 44
6 62 16 18 31 20 127 20 l108 0 0 49 c0 65 -23 117 -63 141 -34 21 -96 25
-137 9z m121 -45 c30 -27 43 -72 31 -99 -11 -24 -16 -25 -91 -25 -71 0 -82 2
-95 22 -14 20 -14 25 7 62 12 22 33 46 47 53 29 16 76 9 101 -13z"/>
<path d="M5645 1915 c-16 -7 -38 -27 -48 -44 -17 -28 -17 -32 -2 -37 10 -4 26
5 45 26 38 43 101 48 131 11 37 -45 36 -92 -2 -112 -8 -5 -39 -11 -70 -14 -45
-5 -63 -12 -88 -37 -28 -27 -31 -36 -31 -90 0 -54 3 -63 31 -89 37 -35 74 -37
126 -9 45 24 62 25 69 5 4 -8 15 -15 25 -15 18 0 19 10 19 154 0 220 -24 267
-133 265 -23 0 -55 -7 -72 -14z m153 -250 c4 -50 -12 -87 -47 -108 -41 -24
-78 -21 -106 8 -56 55 -12 149 73 157 53 5 76 -12 80 -57z"/>
<path d="M5963 1903 c14 -70 20 -90 33 -120 8 -17 14 -40 14 -51 0 -11 7 -33
15 -48 8 -16 15 -36 15 -44 1 -34 38 -125 52 -128 16 -3 48 62 48 98 0 10 4
21 9 24 5 3 12 26 15 51 4 24 11 47 17 50 5 4 9 18 9 33 0 15 6 39 14 54 13
25 20 63 17 96 -2 26 -41 -7 -41 -36 -1 -15 -7 -38 -15 -52 -8 -14 -14 -38
-15 -55 0 -16 -6 -47 -14 -70 -8 -22 -17 -52 -20 -67 -4 -16 -10 -28 -14 -28
-13 0 -42 57 -52 102 -36 161 -56 218 -77 218 -11 0 -14 -7 -10 -27z"/>
<path d="M6418 1916 c-39 -17 -64 -54 -77 -114 -20 -94 -7 -199 29 -247 23
-31 77 -55 121 -55 44 0 113 31 122 55 8 20 -31 20 -57 0 -11 -8 -40 -15 -64
-15 -56 0 -96 36 -106 98 -12 76 -2 82 124 82 l110 0 0 61 c0 69 -21 109 -70
134 -34 18 -94 18 -132 1z m129 -47 c27 -27 38 -71 23 -99 -10 -19 -19 -21
-93 -18 l-82 3 -3 44 c-3 46 13 75 53 92 29 12 76 2 102 -22z"/>
<path d="M6746 1914 c-8 -20 -8 -377 0 -398 3 -8 12 -12 20 -9 11 4 14 33 14
142 0 75 5 152 10 172 12 44 46 69 93 69 67 0 87 -54 87 -240 0 -75 3 -140 7
-143 3 -4 12 -2 20 4 10 9 13 48 13 162 0 209 -20 257 -111 257 -29 0 -68 -16
-80 -34 -4 -5 -20 1 -37 13 -26 18 -31 19 -36 5z"/>
<path d="M7854 1906 c-11 -46 2 -319 17 -348 27 -52 102 -74 143 -43 25 19 50
19 66 0 7 -8 19 -15 26 -15 11 0 14 39 14 216 0 200 -1 215 -17 212 -16 -3
-18 -20 -21 -165 l-2 -161 -36 -31 c-45 -40 -84 -41 -119 -4 -24 27 -25 31
-25 180 0 83 -3 158 -6 167 -9 24 -33 19 -40 -8z"/>
<path d="M1693 1282 c-51 -48 -53 -137 -4 -184 10 -9 40 -26 67 -38 82 -35 98
-47 119 -84 l20 -36 -20 -37 c-35 -64 -114 -73 -172 -20 -12 11 -23 29 -25 41
-4 27 -32 28 -36 1 -2 -18 28 -58 72 -92 8 -7 41 -13 72 -13 102 0 152 67 125
165 -11 42 -27 57 -91 86 -91 41 -110 54 -122 83 -15 38 -14 58 7 90 19 29 67
42 114 31 23 -5 37 -17 51 -46 25 -47 49 -53 42 -9 -3 19 -18 41 -40 60 -31
25 -45 30 -92 30 -47 0 -60 -4 -87 -28z"/>
</g>
</svg>
